<?xml version="1.0" standalone="no"?>
<!DOCTYPE svg PUBLIC "-//W3C//DTD SVG 20010904//EN"
 "http://www.w3.org/TR/2001/REC-SVG-20010904/DTD/svg10.dtd">
<svg version="1.0" xmlns="http://www.w3.org/2000/svg"
 width="1200.000000pt" height="1200.000000pt" viewBox="0 0 1200.000000 1200.000000"
 preserveAspectRatio="xMidYMid meet">
<metadata>
Created by potrace 1.11, written by Peter Selinger 2001-2013
</metadata>
<g transform="translate(0.000000,1200.000000) scale(0.100000,-0.100000)"
fill="#000000" stroke="none">
<path d="M3000 6460 c0 -1650 3 -3000 8 -3001 4 -1 1354 -2 3000 -2 l2992 -2
0 3003 0 3002 -3000 0 -3000 0 0 -3000z m4640 1510 l0 -430 -562 -2 -562 -3 0
-1517 0 -1518 -513 0 -513 0 -2 1518 -3 1517 -562 3 -563 2 0 430 0 430 1640
0 1640 0 0 -430z"/>
<path d="M4670 2390 l0 -300 70 0 70 0 0 144 c0 138 1 146 22 160 12 9 34 16
49 16 47 0 53 -19 54 -176 l0 -144 74 0 73 0 -4 163 c-5 179 -16 222 -64 254
-38 24 -122 22 -161 -4 -15 -11 -33 -22 -39 -26 -7 -4 -9 27 -6 104 l5 109
-72 0 -71 0 0 -300z"/>
<path d="M2390 2590 l0 -60 80 0 80 0 0 -220 0 -220 70 0 70 0 0 220 0 220 80
0 80 0 0 60 0 60 -230 0 -230 0 0 -60z"/>
<path d="M7036 2623 c-3 -16 -8 -44 -12 -64 -5 -31 -11 -38 -36 -43 -17 -3
-41 -6 -54 -6 -22 0 -24 -4 -24 -55 l0 -55 50 0 50 0 0 -76 c0 -150 37 -214
135 -234 53 -11 169 0 186 17 4 4 3 29 -3 54 l-11 46 -48 -5 c-98 -9 -119 15
-119 134 l0 64 85 0 85 0 0 60 0 60 -85 0 -85 0 0 65 0 65 -54 0 c-51 0 -55
-2 -60 -27z"/>
<path d="M3312 2515 c-99 -31 -152 -103 -152 -210 0 -137 88 -219 235 -219 46
-1 122 19 148 39 17 12 17 15 -4 54 -16 32 -26 40 -38 35 -9 -4 -45 -9 -81
-11 -56 -4 -69 -2 -92 17 -16 12 -28 25 -28 30 0 5 62 11 138 12 l137 3 3 42
c7 102 -51 189 -141 212 -56 14 -71 13 -125 -4z m119 -115 c10 -6 19 -17 19
-25 0 -12 -16 -15 -75 -15 -78 0 -90 8 -53 34 26 18 80 21 109 6z"/>
<path d="M4101 2519 c-71 -14 -130 -59 -163 -123 -31 -60 -23 -161 17 -218 65
-92 200 -119 318 -65 41 18 56 30 51 39 -4 7 -17 27 -28 43 -12 17 -22 31 -23
33 0 2 -15 -4 -32 -12 -85 -44 -181 3 -181 89 0 85 79 124 185 91 15 -5 26 3
48 33 15 22 27 42 27 45 0 3 -17 14 -37 25 -47 23 -124 32 -182 20z"/>
<path d="M6329 2520 c-82 -14 -128 -54 -135 -117 -9 -72 39 -120 142 -142 68
-14 114 -30 114 -40 0 -35 -93 -41 -172 -11 -29 11 -54 20 -55 20 -10 0 -54
-81 -49 -89 13 -21 122 -53 186 -54 122 -3 212 44 223 116 5 37 -12 85 -39
108 -20 18 -96 44 -156 55 -40 7 -64 26 -53 44 9 15 90 12 132 -5 48 -20 47
-20 82 24 l31 39 -52 25 c-62 29 -134 39 -199 27z"/>
<path d="M7807 2514 c-181 -57 -201 -322 -30 -405 129 -63 284 9 313 144 37
173 -116 314 -283 261z m109 -112 c21 -14 34 -51 34 -100 0 -65 -27 -102 -75
-102 -46 0 -68 33 -69 104 -1 70 22 106 67 106 17 0 37 -4 43 -8z"/>
<path d="M8708 2519 c-20 -6 -54 -28 -75 -50 -41 -42 -53 -38 -53 19 l0 32
-60 0 -60 0 0 -215 0 -215 70 0 70 0 0 105 c0 118 9 146 61 189 28 24 40 27
93 25 l60 -3 13 50 c7 27 9 52 5 56 -13 13 -87 17 -124 7z"/>
<path d="M9322 2515 c-99 -31 -152 -103 -152 -210 0 -137 88 -219 235 -219 46
-1 122 19 148 39 17 12 17 15 -4 54 -16 32 -26 40 -38 35 -9 -4 -45 -9 -81
-11 -56 -4 -69 -2 -92 17 -16 12 -28 25 -28 30 0 5 62 11 138 12 l137 3 3 42
c7 102 -51 189 -141 212 -56 14 -71 13 -125 -4z m119 -115 c10 -6 19 -17 19
-25 0 -12 -16 -15 -75 -15 -78 0 -90 8 -53 34 26 18 80 21 109 6z"/>
<path d="M5420 2370 l0 -50 200 0 200 0 0 50 0 50 -200 0 -200 0 0 -50z"/>
</g>
</svg>
